<?xml version="1.0" encoding="utf-8"?>
<!-- Generator: Adobe Illustrator 21.0.0, SVG Export Plug-In . SVG Version: 6.00 Build 0)  -->
<svg version="1.1" xmlns="http://www.w3.org/2000/svg" xmlns:xlink="http://www.w3.org/1999/xlink" x="0px" y="0px"
	 viewBox="0 0 600 800" style="enable-background:new 0 0 600 800;" xml:space="preserve">
<style type="text/css">
	.st0{fill:#FFFFFF;}
</style>
<g id="Layer_1">
</g>
<g id="Layer_2">
	<g>
		<path class="st0" d="M275.3,277.9c-7.1,1.1-15.5,6.8-21.7,10.3c-7.4,4.2-14.4,8.9-21.1,14.2c-13.1,10.4-23.2,22.3-30.8,37.3
			c-11.2,22-14.7,48.5-8.4,72.4c9.9,37.8,41,69.8,77.3,83.8c-8-2.9-16.3-4.3-24.3-7.9c-39-17.6-64.8-58-64.7-100.7
			c0-20.6,5.7-41.3,16.6-58.8C215,301.6,243.9,282.6,275.3,277.9z"/>
		<path class="st0" d="M372.3,385.9c0,0-13.1,3.6-16.8-10.1c0,0-2-9.9,6.9-15.5c0,0,4.3-26.6-9-47.3c-13.3-20.7-31.5-29-40.7-33
			c0,0,14.8-9,31.5,5.3c16.7,14.3,27,27.3,30.2,56.5c0,0,0.7,11.8,0,17.5c0,0,1,0.9,1.3-0.8c0.3-1.7,5.7-25.4-10.1-51.2
			c0,0-10.2-18.7-33.5-30.8c0,0,14.3-7.7,28.3,8.8s24.5,31.5,24.5,62.2c0,0-1,10.7-1.7,14c-0.7,3.3,1.6,2.7,1.7,2
			c0.2-4.2,1.1-8.3,1.3-12.5c0.4-8.8,0-18-2.2-26.5c-4-16.1-12.8-31-25-42.4c-1.5-1.4-3-2.7-4.5-3.9c0.5,0.4,3.3,0,4.1,0.1
			c1.5,0.2,3,0.5,4.5,0.9c2.9,0.9,5.7,2.2,8.2,4c7,5,11.4,13.7,15,21.3c3.8,8.3,6.4,17.1,7.6,26.1c1.1,8,1.1,16.2,0.4,24.2
			c0,0-1,10.3-2.5,14.1c0,0-0.4,2.2,1,0.5c0,0,4.6-4.4,3.6-34.1c0,0-3.8-34.4-19.4-49.6c0,0,12.4,0.6,21.8,19.4s5.8,49,5.8,49
			s-2.8,15.8-4.4,21.1c0,0-0.4,2.5,1.2,0.4c1.1-1.5,1.5-4,2-5.8c4.8-18.2,5-37.5-0.1-55.6c-1.3-4.8-3.1-9.4-5.2-13.8
			c0,0,7.9,0.9,14.4,14.1s2.1,41.9,2.1,41.9s-2,11-7.9,28.1c0,0-0.8,3.2,1.1,0.4c0,0,14.5-26.8,8.3-65c0,0,5.7,1.8,8.1,19.2
			c2.5,18.6-2.7,38.1-11.3,54.5c-0.5,1-1,2-1.5,3c0,0-1.9,5.1,1.3,0.9c0,0,14.2-22.8,15.7-54.4c0,0,6.2,9,2.8,28.3
			s-15.2,36.5-15.2,36.5s-2.1,4.3,0.9,0.5c2.9-3.8,12.3-17.4,16.6-34.4c-0.1,0.5,0.6,2.1,0.7,2.6c0.5,2.7,0.5,5.5,0.3,8.2
			c-1.3,15.1-9.3,26.9-18.4,38.4c0,0-2.8,3.5,0.6,1c0,0,5.2-4.7,8.8-9.5c0,0,2-2.6,5.3-5.1c0,0-0.4,14-20,28.9l-1.4,1.4
			c0,0-2.1,1.7,0.5,0.8c0,0,3.1-0.2,16.8-11.9c0,0,1.1,4.7-8.4,13.9c0,0-4.5,4.3-11.3,6.4c0,0-2.7,1.3,0.2,1c0,0,9.3-2.7,12.5-5.3
			c0,0,2.2,1.8-9.2,9.5c0,0-5.2,3.5-10.6,3.8c0,0-3,0.5-6.5-2.5c-3.6-2.9-7-3.9-8.8-3.5s-0.8,0.8-0.3,1c0.6,0.1,7,0.6,12.6,6.7
			c0,0,1.2,1.5-0.1,2c0,0-3.5,0.3-0.1,1c3.4,0.7,5,1.4,5.1,1.7c0,0.3,0.3,0.7-0.5,4.1s-0.6,4.4-0.6,4.4s0.2,0.8,1.2-0.1
			c0,0,1.7-0.4,9.4-8.2c0,0,2.5,1.8-5.9,9.6l-2.5,2.1c0,0-0.8,0.8,0.5,0.5c1.2-0.4,7.3-5.6,7.3-5.6s1.8-1,1.2,0.9
			c-0.6,1.8-2.9,5.3-7.7,8.1c0,0-1.8,1.4,0.3,0.8s3.1-1.8,3.1-1.8s1-0.8,0.8,0.5c-0.2,1.3-2,3.5-8.1,6.3c0,0,0.3,7.2-2.3,9.8
			c0,0-2.9,2.9-3.1,3.3c0,0-0.3,0.5-3.2-0.4c0,0-8.5-4-10.1-3.6c-1.6,0.5-1.9,0.5-1.9,3c0,0-2.2-0.7-2.7-4.3c0,0-0.4-2.4-1,0
			c-0.7,2.3,0,4.5,0,4.5s-3.8-1.8-3.3-8.3c0,0,1.2-4,10.3-1.3c0,0,1.3,0.4,1.2-0.4c0,0-0.8-1.4,1.1-6.1c0,0,1.3-3.5,1.1-4.7
			c-0.2-1.2,0.9-1.8-1.5-1.1c0,0-15.1,3.8-24.1-7.7c0,0,0.3,5.9,13.1,9.3c0,0-13.3,6-25.4-11.4c0,0,0-1.3-3.1-1.1
			c0,0,1.3-7.9-4.4-8.9c0,0-0.7-1.7,1.1-5.5c0,0,1.4-2.4-3.4-3.6c0,0-1-0.9,3.5-6.2c0,0,0.8-1.1-3.2-4.1l5.2-5c0,0,1-0.9,0-2.1
			c-0.7-0.8-2-1.8-0.7-2.8c0.4-0.3,0.9-0.4,1.3-0.6c2.1-0.8,11.9-7.9,7.8-9.8c-2.2-1-2.4-1.8-2.1-2.2s1.5-1.9,0.7-2.8
			c0,0-0.4-1.2,0.9-0.6c0,0,3.6,0.8,4.3,1.3c0.7,0.5,1.6,0.4,1.7-0.6c0.1-1,0.9-2.5-0.5-2.6l-4.2,0c0,0-1.9-1.1-2.4-4.3
			c0,0,0.3-0.4,1,0.4c0.7,0.8,2.7,3.5,6,1.6c0,0,0.8-5.4-5.9-6.7c0,0-2.7-0.7-6,1.4c0,0,0.2-8.1,3.5-10.7c3.3-2.6,8.4,0.1,8.4,0.1
			s8.9,3.7,16.4,10.7c0,0,5.8,6,12.2,4.1l-1,3.7c0,0-0.2,1.3-2.5,1.3c-2.4,0-3.6,0.3-3.6,0.3s-1.3,0.8,0,1s2.9,0.2,2.9,0.2
			s3.1,3.3,0.2,10.5s-3.4,10.3-3.2,11.5l-2.6,3.7c0,0,3-3.1,3.1-3.2c8.5-8.7,11.1-22.9,7.5-34.4C384.3,394,379.4,386.8,372.3,385.9z
			"/>
		<path class="st0" d="M336.7,437c0,0-20-2-38.6-28.8c0,0-1,5.6-0.7,11.1c0,0,11.1,14.6,31.5,22.4c0,0,3.9,1.1-0.3,1.1
			c0,0-17.2-4.9-31.3-21.2c0,0-0.3,4.9,0.5,10.9c0,0,8.8,9.3,31.6,17.2c0,0,1.9,1.3-0.3,0.9c0,0-15.8-3.2-30.9-16
			c0,0,0.6,7.6,1.6,9.8c0,0,5.8,5.9,32.5,13.4c0,0,4.4,1.6-0.2,1c0,0-13.9-1.2-31.4-11.9c0,0,0.3,3.3,2.7,8.4c0,0,13,9.9,39.6,10.7
			c0,0,2.4-7.1-4.6-9.5c0,0,0.1-3.5,1.6-5.7c0,0,1.2-1.9-4.1-3.6c0,0,0.6-2.4,4-6.4C339.8,440.8,341,439.2,336.7,437z"/>
		<path class="st0" d="M347.3,469.3c-0.1,0.2,1.3,9.6-10.9,18.5c0,0-8.3-2.9-10.5,3.4c0,0-1.3,4.3,3.2,6.9c0,0-0.7-5,0.8-5.4
			c0,0,0.8,4.3,2.9,5.4c0,0-0.8-4.4,2.3-3.3c0,0,2.6,0,10.4,3.1c0,0,1.4-0.3,2.2-2.7c0,0,0.3-2.1,3.9-1.5c0,0,2.9-0.2,5.2-1.7
			c0,0-2.9,0.5-4.3-0.3c0,0,6.2-0.4,8.9-4.2c0,0-4.3,2-7.5,1c0,0,7.5-2.3,10.1-5.5c0,0-5.2,2.1-6.8,1.9c0,0-0.7-0.6,0.3-1.3
			c0,0,4.5-3.5,4.2-4.1c0,0,0.1-0.4-0.5-0.6c0,0-5.1-1.2-8-5.1C353.1,473.6,347.8,468.2,347.3,469.3z"/>
		<path class="st0" d="M335.7,489.2c0,0-1.8-0.3-2.4,0.3s3.5,0.5,3.5,0.5S337.7,489,335.7,489.2z"/>
		<path class="st0" d="M361.2,364.7c0,0-5.3,6.7-1.7,12.7c3.5,5.9,10.8,5.3,13.2,4.2c0,0,6.9,1.6,14,13c0,0,2.7,3.8,3.9,12.3
			c0,0-3.4-13.3-11.6-19.6c0,0-5.2-4.3-5.8-4.3c-2.9,1-6.4,1.5-9.4,0.4c-2.6-1-4.5-3.3-5.8-5.7c-1.2-2.4-1.4-5-0.9-7.6
			c0.3-1.9,1.8-4.7,3.3-5.9C361.5,363.2,361.2,364.7,361.2,364.7z"/>
		<g>
			<path class="st0" d="M243.6,363.4v0.9H227v-0.9h1.1c0.9,0,1.7-0.2,2.2-0.5c0.4-0.2,0.7-0.6,0.9-1.1c0.2-0.4,0.3-1.4,0.3-3v-20.9
				c0-1.6-0.1-2.6-0.3-3s-0.5-0.8-1-1.1s-1.2-0.5-2.1-0.5H227v-0.9h16.6v0.9h-1.1c-0.9,0-1.7,0.2-2.2,0.5c-0.4,0.2-0.7,0.6-1,1.1
				c-0.2,0.4-0.3,1.4-0.3,3v20.9c0,1.6,0.1,2.6,0.3,3s0.5,0.8,1.1,1.1s1.2,0.5,2.1,0.5H243.6z"/>
			<path class="st0" d="M262.3,363.4v0.9h-16.6v-0.9h1.1c0.9,0,1.7-0.2,2.2-0.5c0.4-0.2,0.7-0.6,0.9-1.1c0.2-0.4,0.3-1.4,0.3-3
				v-20.9c0-1.6-0.1-2.6-0.3-3s-0.5-0.8-1-1.1s-1.2-0.5-2.1-0.5h-1.1v-0.9h16.6v0.9h-1.1c-0.9,0-1.7,0.2-2.2,0.5
				c-0.4,0.2-0.7,0.6-1,1.1c-0.2,0.4-0.3,1.4-0.3,3v20.9c0,1.6,0.1,2.6,0.3,3s0.5,0.8,1.1,1.1s1.2,0.5,2.1,0.5H262.3z"/>
			<path class="st0" d="M293.7,332.5v8.6h-0.8c-0.5-2-1.1-3.4-1.7-4.3s-1.4-1.6-2.5-2.1c-0.6-0.3-1.6-0.4-3.1-0.4h-2.4v24.5
				c0,1.6,0.1,2.6,0.3,3s0.5,0.8,1.1,1.1s1.2,0.5,2.1,0.5h1.1v0.9H271v-0.9h1.1c0.9,0,1.7-0.2,2.2-0.5c0.4-0.2,0.7-0.6,1-1.1
				c0.2-0.4,0.3-1.4,0.3-3v-24.5h-2.3c-2.1,0-3.7,0.5-4.7,1.4c-1.4,1.3-2.2,3.1-2.6,5.4h-0.9v-8.6H293.7z"/>
			<path class="st0" d="M328.5,331.7v11.2h-0.9c-1-3.1-2.6-5.4-4.7-7s-4.4-2.4-6.9-2.4c-2.4,0-4.4,0.7-5.9,2s-2.7,3.2-3.4,5.6
				s-1,4.8-1,7.4c0,3,0.4,5.7,1.1,8s1.9,4,3.5,5.1s3.5,1.6,5.7,1.6c0.8,0,1.6-0.1,2.4-0.2s1.6-0.4,2.5-0.7v-6.6
				c0-1.3-0.1-2.1-0.3-2.4s-0.5-0.7-1.1-1s-1.2-0.4-2-0.4h-0.8v-0.9h15.4v0.9c-1.2,0.1-2,0.2-2.4,0.5s-0.8,0.6-1.1,1.2
				c-0.1,0.3-0.2,1-0.2,2.2v6.6c-2,0.9-4.1,1.6-6.3,2.1s-4.5,0.7-6.8,0.7c-3,0-5.5-0.4-7.5-1.2s-3.8-1.9-5.3-3.2
				c-1.5-1.3-2.7-2.8-3.6-4.5c-1.1-2.2-1.6-4.6-1.6-7.2c0-4.8,1.7-8.8,5-12.1c3.4-3.3,7.6-4.9,12.7-4.9c1.6,0,3,0.1,4.3,0.4
				c0.7,0.1,1.8,0.5,3.3,1.1s2.4,0.9,2.7,0.9c0.4,0,0.8-0.2,1.2-0.5s0.7-0.9,1-1.8H328.5z"/>
			<path class="st0" d="M244.9,394.4l8.6-21h12.9v0.9h-1c-0.9,0-1.7,0.2-2.3,0.5c-0.4,0.2-0.7,0.6-0.9,1.1c-0.2,0.4-0.3,1.4-0.3,2.9
				v21c0,1.6,0.1,2.6,0.3,3s0.5,0.8,1.1,1.1s1.2,0.5,2.1,0.5h1v0.9h-16.6v-0.9h1c0.9,0,1.7-0.2,2.3-0.5c0.4-0.2,0.7-0.6,0.9-1.1
				c0.2-0.4,0.3-1.4,0.3-3v-23.6l-12.2,29h-0.6l-12.4-28.8v22.4c0,1.6,0,2.5,0.1,2.9c0.2,0.8,0.6,1.4,1.3,1.9s1.7,0.7,3.2,0.7v0.9
				H223v-0.9h0.3c0.7,0,1.4-0.1,2-0.3s1.1-0.6,1.4-1s0.6-1,0.7-1.7c0-0.2,0-1,0-2.4v-20.1c0-1.6-0.1-2.6-0.3-3s-0.5-0.8-1.1-1.1
				s-1.2-0.5-2.1-0.5h-1v-0.9h13L244.9,394.4z"/>
			<path class="st0" d="M268.5,373.5h16.4v0.9h-0.8c-1.2,0-2.1,0.1-2.5,0.4s-0.8,0.6-1,1.1s-0.3,1.6-0.3,3.4v15.6
				c0,2.8,0.2,4.7,0.6,5.6s1.1,1.7,2.1,2.3s2.2,0.9,3.7,0.9c1.7,0,3.2-0.4,4.4-1.2s2.1-1.8,2.7-3.2s0.9-3.7,0.9-7.1v-13
				c0-1.4-0.1-2.4-0.4-3s-0.7-1-1.1-1.3c-0.7-0.4-1.7-0.5-3-0.5v-0.9h11v0.9h-0.7c-0.9,0-1.6,0.2-2.2,0.5s-1,0.9-1.3,1.6
				c-0.2,0.5-0.3,1.4-0.3,2.7v12.1c0,3.7-0.2,6.4-0.7,8.1s-1.7,3.2-3.6,4.6s-4.5,2.1-7.8,2.1c-2.8,0-4.9-0.4-6.4-1.1
				c-2-1-3.5-2.3-4.3-3.8s-1.3-3.7-1.3-6.3v-15.6c0-1.8-0.1-3-0.3-3.4s-0.6-0.8-1.1-1.1s-1.4-0.4-2.8-0.4V373.5z"/>
			<path class="st0" d="M314,373.5l15.7,19.7v-13.7c0-1.9-0.3-3.2-0.8-3.9c-0.8-0.9-2-1.3-3.8-1.3v-0.9h10.5v0.9
				c-1.3,0.2-2.2,0.4-2.7,0.7s-0.8,0.7-1.1,1.3s-0.4,1.7-0.4,3.2V406h-0.8l-21.5-26.5v20.2c0,1.8,0.4,3.1,1.3,3.7s1.8,1,2.9,1h0.8
				v0.9h-11.3v-0.9c1.8,0,3-0.4,3.7-1.1s1-1.9,1-3.6v-22.4l-0.7-0.8c-0.7-0.8-1.3-1.4-1.8-1.7s-1.3-0.4-2.2-0.4v-0.9H314z"/>
		</g>
		<path class="st0" d="M322.9,552.1c0.5,0.2,3.9-1.1,4.7-1.1c3.9-0.4,7.9,0.4,11.6,1.8c7.9,3,14.3,8.8,21.1,13.6
			c11.7,8.1,27.5,16,42,15.2c0,0,31.2,4.6,55.3-24.4c-1.1,1.3-4.4,2.2-6,2.9c-4.4,1.9-8.9,3.4-13.7,4.3c-10.2,1.9-20.8,1.9-31-0.3
			c-16-3.6-30.2-12.6-45.9-17.1c-14-4-27.7-3.4-42-1.4l-5,1.6c0,0-4.2,1.5-7.3-0.1c-3-1.5-6.7-1.8-9.9-2.2c-6-0.6-12.1-0.7-18.1-0.1
			c-12.9,1.2-25.3,5.6-37.2,10.5c-1.3,0.5-2.6,1.1-3.9,1.6c-11.6,4.9-23.5,10.3-36.3,10.9c-11.8,0.6-23.8-1.9-34.3-7.2
			c-0.6-0.3-1.2-0.6-1.8-0.9c0,0,19.2,27.8,58.8,23.3c0,0,17.4-0.9,42.7-20.2c0,0,17.5-14.3,32-11c0,0,0.3,0.6-0.8,1.1
			c0,0-34.2,16.9-50,37.4l9.9,7.8c0,0,22.8-26.8,49.1-41.3c0,0,4.8-1.2,6.9,0.1c0,0,15,4.4,49.7,40.1l9.3-8
			C372.9,589,356.3,567.5,322.9,552.1z"/>
		<path class="st0" d="M366.7,543.9c0,0-1.9,0.6,0,1.5c0,0,8.8,0.4,24.8,5.1c0,0,43.8,13.3,68.3,0c0,0,27.5-11.3,36.3-34
			c0,0-12.8,10.6-14.8,11.2c-1.9,0.6-10.1,6.6-34.9,8.8s-41.5,4.7-41.5,4.7s-2.8,0-0.1-1.2c0,0,17.9-4,26.2-22.5
			c0,0,5.3-8.8,8.3-16.4c3-7.6,6.6-11.6,6.6-11.6s0.9-2.3-1.4-1.1s-23.8,19.3-35.9,32.1C396.4,533.3,378.4,543.4,366.7,543.9z"/>
		<path class="st0" d="M478.4,440.3c0,0,0.5-3.3-1.9-0.8c-2.4,2.4-19.5,26.5-21.5,35.3c0,0-8.7,36.6-27.3,56.8c0,0-2.5,2.2,1.3,1.7
			c0,0,9.1-3.9,31.5-6.9c0,0,56.5-10.3,71-67.7c0,0,0.1-2.7-1.3-0.3c0,0-10.2,23.7-47.2,38c0,0-23.3,12.4-30.1,19.9
			c0,0-2,1.4-0.8-0.8c0,0,16.5-16.5,18.3-36C470.4,479.3,474.9,446.1,478.4,440.3z"/>
		<path class="st0" d="M472.6,492.5c0,0-1.3,3.3,1.6,1.5c0,0,44.5-27.3,51-37.8c0,0,25.7-23.5,21.8-61.3c0,0-0.9-2-2,0
			c0,0,0.7,14.9-17.5,32.4c0,0-26.1,26.5-30.5,37c0,0-3.1,2.7-1.6-1c0,0,8.6-17.5,3.5-40c0,0-4.3-20-4-32.5c0,0-0.1-3.4-1.6,0
			c-1.5,3.4-8.2,20.7-9.4,52.3C483.9,443,482.2,479.2,472.6,492.5z"/>
		<path class="st0" d="M507.3,436.2c0,0,0.1,4,2.6,0.8c0,0,15.3-20.8,23-31.3c0,0,23.9-36.4,8.4-78.9c0,0-0.7-1.3-1.2,0
			c0,0-0.7,23.9-9.8,41.6c0,0-11,23.8-10.8,32.6c0,0-1.2,3.8-1.7,0s0.2-19.3-10.6-34.9s-14.5-26.6-14.5-26.6s-0.8-4.5-2.3-0.3
			s5.8,43.4,12.4,62.5S507,434.9,507.3,436.2z"/>
		<path class="st0" d="M518.4,375.2c0,0,1.5,4.7,2.7,0c1.2-4.7,7.3-28.9,10.8-36.4s7.7-46.7-16.7-74.9c0,0-2.3-2.1-1.4,0.9
			s6.8,7.5,4.7,27.1c0,0-3,35.7-0.6,47c0,0-0.4,4-1.6,0.2c-1.2-3.8-4.3-14.1-20-27c0,0-16.8-15.9-18.3-19.1c0,0-1.9-2.5-1.9,0.5
			s7.8,27.2,15.6,35.7S517.3,365.8,518.4,375.2z"/>
		<path class="st0" d="M509.5,318.7c0,0,3.7,5.3,2.7-0.8c0,0-0.4-42.5-0.5-44.6c-1.1-18.3-15.4-34.9-32.6-40.6c0,0-2.4-0.8-0.6,1.3
			s10.1,7.6,12.9,21.8c1.8,9.4,4.6,18.5,7.5,27.6c0.3,1.1,0.7,2.2,1,3.3c0.2,0.6,0.2,1.5-0.5,1.6c-0.2,0-0.4-0.1-0.6-0.2
			c-0.8-0.6-1.6-1.3-2.3-2c-3.6-3.6-7.3-7.1-11.2-10.4c-3.7-3.2-7.5-6.3-11.5-9.1c-2.6-1.8-5.3-3.4-7.8-5.2c-1.3-0.9-2.5-2-3.6-3.1
			c-1.1-1.1-2-2.5-3-3.7c-1.3-1.5-2.8-3.3-3.4-5.3c0,0-1.1-2.4-0.9,0.7s2.7,21.2,19.7,35.1C491.9,298.8,509.2,312.8,509.5,318.7z"/>
		<path class="st0" d="M432.2,210.8c0,0,16.7,17.8,18.2,22.7c1.5,4.8,29.2,33.7,37.5,37.7c0,0,4.1,3.5,2.1-1.5
			c0,0-8.4-34.1-26.7-44.9C463.3,224.7,447.9,213.5,432.2,210.8z"/>
		<path class="st0" d="M253.2,545.5c0,0,1.9,0.6,0,1.5c0,0-8.8,0.4-24.8,5.1c0,0-43.8,13.3-68.3,0c0,0-27.5-11.3-36.3-34
			c0,0,12.8,10.6,14.8,11.2c1.9,0.6,10.1,6.6,34.9,8.8s41.5,4.7,41.5,4.7s2.8,0,0.1-1.2c0,0-17.9-4-26.2-22.5c0,0-5.3-8.8-8.3-16.4
			c-3-7.6-6.6-11.6-6.6-11.6s-0.9-2.3,1.4-1.1s23.8,19.3,35.9,32.1C223.6,534.8,241.6,545,253.2,545.5z"/>
		<path class="st0" d="M141.5,441.9c0,0-0.5-3.3,1.9-0.8c2.4,2.4,19.5,26.5,21.5,35.3c0,0,8.7,36.6,27.3,56.8c0,0,2.5,2.2-1.3,1.7
			c0,0-9.1-3.9-31.5-6.9c0,0-56.5-10.3-71-67.8c0,0-0.1-2.7,1.3-0.3c0,0,10.2,23.7,47.2,38c0,0,23.3,12.4,30.1,19.9
			c0,0,2,1.4,0.8-0.8c0,0-16.5-16.5-18.3-36C149.6,480.9,145,447.6,141.5,441.9z"/>
		<path class="st0" d="M147.3,494c0,0,1.3,3.3-1.6,1.5c0,0-44.5-27.3-51-37.8c0,0-25.7-23.5-21.8-61.3c0,0,0.9-2,2,0
			c0,0-0.7,14.9,17.5,32.4c0,0,26.1,26.5,30.5,37c0,0,3.1,2.7,1.6-1c0,0-8.6-17.5-3.5-40c0,0,4.3-20,4-32.5c0,0,0.1-3.4,1.6,0
			c1.5,3.4,8.2,20.7,9.4,52.3C136.1,444.5,137.7,480.7,147.3,494z"/>
		<path class="st0" d="M112.6,437.8c0,0-0.1,4-2.6,0.8c0,0-15.3-20.8-23-31.3c0,0-23.9-36.4-8.4-78.9c0,0,0.7-1.3,1.2,0
			c0,0,0.7,23.9,9.8,41.6c0,0,11,23.8,10.8,32.6c0,0,1.2,3.8,1.7,0s-0.2-19.3,10.6-34.9s14.5-26.6,14.5-26.6s0.8-4.5,2.3-0.3
			c1.5,4.3-5.8,43.4-12.4,62.5S112.9,436.4,112.6,437.8z"/>
		<path class="st0" d="M101.5,376.7c0,0-1.5,4.7-2.7,0c-1.2-4.7-7.3-28.9-10.8-36.4s-7.7-46.7,16.7-74.9c0,0,2.3-2.1,1.4,0.9
			s-6.8,7.5-4.7,27.1c0,0,3,35.7,0.6,47c0,0,0.4,4,1.6,0.2c1.2-3.8,4.3-14.1,20-27c0,0,16.8-15.9,18.3-19.1c0,0,1.9-2.5,1.9,0.5
			s-7.8,27.2-15.6,35.7S102.7,367.4,101.5,376.7z"/>
		<path class="st0" d="M110.4,320.2c0,0-3.7,5.3-2.7-0.8c0,0,0.4-42.5,0.5-44.6c1.1-18.3,15.4-34.9,32.6-40.6c0,0,2.4-0.8,0.6,1.3
			c-1.8,2.1-10.1,7.6-12.9,21.8c-1.8,9.4-4.6,18.5-7.5,27.6c-0.3,1.1-0.7,2.2-1,3.3c-0.2,0.6-0.2,1.5,0.5,1.6c0.2,0,0.4-0.1,0.6-0.2
			c0.8-0.6,1.6-1.3,2.3-2c3.6-3.6,7.3-7.1,11.2-10.4c3.7-3.2,7.5-6.3,11.5-9.1c2.6-1.8,5.3-3.4,7.8-5.2c1.3-0.9,2.5-2,3.6-3.1
			c1.1-1.1,2-2.5,3-3.7c1.3-1.5,2.8-3.3,3.4-5.3c0,0,1.1-2.4,0.9,0.7s-2.7,21.2-19.7,35.1S110.7,314.4,110.4,320.2z"/>
		<path class="st0" d="M187.7,212.4c0,0-16.7,17.8-18.2,22.7c-1.5,4.8-29.2,33.7-37.5,37.7c0,0-4.1,3.5-2.1-1.5
			c0,0,8.4-34.1,26.7-44.9C156.6,226.3,172.1,215,187.7,212.4z"/>
	</g>
</g>
</svg>
